/* XPM */
static char * live_installer_xpm[] = {
"32 32 430 2",
"  	c None",
". 	c #AADE87",
"+ 	c #ABDF88",
"@ 	c #A9DD86",
"# 	c #ACDF89",
"$ 	c #A5DB81",
"% 	c #A2D97D",
"& 	c #ACDF8A",
"* 	c #A9DD85",
"= 	c #ABDE88",
"- 	c #ADE08A",
"; 	c #AEE08B",
"> 	c #A7DC83",
", 	c #A3DA7F",
"' 	c #AEE08C",
") 	c #AADE86",
"! 	c #AADE88",
"~ 	c #ABDF89",
"{ 	c #A8DD85",
"] 	c #AEE18C",
"^ 	c #ADE08B",
"/ 	c #AFE28D",
"( 	c #A6E086",
"_ 	c #A3E082",
": 	c #AEE48F",
"< 	c #A1D87C",
"[ 	c #A4DC7E",
"} 	c #A5DD7F",
"| 	c #A2DA7E",
"1 	c #9EE17F",
"2 	c #9DE381",
"3 	c #9BDC7A",
"4 	c #9ADA78",
"5 	c #9FE080",
"6 	c #9BE27F",
"7 	c #A0E080",
"8 	c #A2D87D",
"9 	c #A1D97C",
"0 	c #85C75A",
"a 	c #84C659",
"b 	c #84C658",
"c 	c #85C759",
"d 	c #83C558",
"e 	c #8ACE5C",
"f 	c #87CD5B",
"g 	c #7ECE5B",
"h 	c #86C659",
"i 	c #85C257",
"j 	c #83CA5A",
"k 	c #83CC5B",
"l 	c #83C859",
"m 	c #86C157",
"n 	c #84C95A",
"o 	c #7FCE5B",
"p 	c #87CA5A",
"q 	c #8CD35E",
"r 	c #88C95E",
"s 	c #87C85D",
"t 	c #87C85C",
"u 	c #88C95D",
"v 	c #87C75C",
"w 	c #89CA5D",
"x 	c #80CA5C",
"y 	c #89C75C",
"z 	c #81D762",
"A 	c #7CDA62",
"B 	c #85CB5D",
"C 	c #89C65B",
"D 	c #83CE5E",
"E 	c #7BDC63",
"F 	c #84D260",
"G 	c #83BE58",
"H 	c #85C65B",
"I 	c #87C95C",
"J 	c #86C75A",
"K 	c #86C85A",
"L 	c #84C458",
"M 	c #88CA5C",
"N 	c #7EBB55",
"O 	c #7CC759",
"P 	c #89D760",
"Q 	c #79D960",
"R 	c #8EA048",
"S 	c #CD5E3B",
"T 	c #D72F26",
"U 	c #BB0A09",
"V 	c #E24032",
"W 	c #BE673B",
"X 	c #87B652",
"Y 	c #7CDB61",
"Z 	c #83CC5C",
"` 	c #8CDD63",
" .	c #88C95B",
"..	c #84C65A",
"+.	c #85C65A",
"@.	c #86C75B",
"#.	c #88D058",
"$.	c #78BA4C",
"%.	c #8DD95E",
"&.	c #4C7C39",
"*.	c #000601",
"=.	c #73CC5C",
"-.	c #B06D3B",
";.	c #C20001",
">.	c #FF232C",
",.	c #E8121D",
"'.	c #BD0002",
").	c #FC1D2A",
"!.	c #F61923",
"~.	c #C10407",
"{.	c #A1934A",
"].	c #74D25E",
"^.	c #304E23",
"/.	c #76BB56",
"(.	c #8ACE5D",
"_.	c #80C254",
":.	c #88CC5B",
"<.	c #87C85B",
"[.	c #8CCE60",
"}.	c #8CCE63",
"|.	c #7FCF5D",
"1.	c #7DBB51",
"2.	c #000100",
"3.	c #81221D",
"4.	c #FF1A25",
"5.	c #AF0002",
"6.	c #FD3835",
"7.	c #DF2021",
"8.	c #BA0708",
"9.	c #F22C2E",
"0.	c #F2332F",
"a.	c #B20000",
"b.	c #FF272A",
"c.	c #552519",
"d.	c #000902",
"e.	c #87CA59",
"f.	c #77C652",
"g.	c #89CD5D",
"h.	c #85CA57",
"i.	c #88C85D",
"j.	c #7BC24C",
"k.	c #75CC4B",
"l.	c #7CC150",
"m.	c #87E36A",
"n.	c #757F3D",
"o.	c #F21426",
"p.	c #F33431",
"q.	c #EA1621",
"r.	c #FC272E",
"s.	c #E11C20",
"t.	c #BA0105",
"u.	c #F3292D",
"v.	c #FA2129",
"w.	c #E31A22",
"x.	c #FC3030",
"y.	c #D20F1F",
"z.	c #629B45",
"A.	c #8EDF66",
"B.	c #81C85F",
"C.	c #82D058",
"D.	c #86C85B",
"E.	c #84C657",
"F.	c #C2E4AD",
"G.	c #D8F8D4",
"H.	c #9DD279",
"I.	c #6FDB5A",
"J.	c #CE6740",
"K.	c #F51521",
"L.	c #F12A2D",
"M.	c #F42129",
"N.	c #F03030",
"O.	c #DF2323",
"P.	c #BB0B0A",
"Q.	c #EE2D2D",
"R.	c #EA2C2B",
"S.	c #FA222B",
"T.	c #EE292D",
"U.	c #FC1C27",
"V.	c #B48C4D",
"W.	c #72DC5F",
"X.	c #7EBF4A",
"Y.	c #89D36A",
"Z.	c #84C758",
"`.	c #81C553",
" +	c #7BC34C",
".+	c #AEDA92",
"++	c #FFFFFF",
"@+	c #FCFFFF",
"#+	c #ABD182",
"$+	c #DF2C1A",
"%+	c #FF232D",
"&+	c #FA2C29",
"*+	c #FF2C30",
"=+	c #F02424",
"-+	c #EC2020",
";+	c #F22727",
">+	c #F52A29",
",+	c #FE3232",
"'+	c #FF2A30",
")+	c #F82E2A",
"!+	c #F80817",
"~+	c #CF502B",
"{+	c #89D567",
"]+	c #E2F0D7",
"^+	c #E9F6E3",
"/+	c #82C656",
"(+	c #80C552",
"_+	c #8AC960",
":+	c #79C44B",
"<+	c #C0E0A8",
"[+	c #EEDED6",
"}+	c #FFEBF5",
"|+	c #FAECEA",
"1+	c #F02E2A",
"2+	c #E72728",
"3+	c #E32323",
"4+	c #E52525",
"5+	c #E82D2D",
"6+	c #EA2F2F",
"7+	c #E62B2B",
"8+	c #E12727",
"9+	c #E92426",
"0+	c #DD2422",
"a+	c #F22527",
"b+	c #EA4E42",
"c+	c #F3FFFB",
"d+	c #FFF3FF",
"e+	c #FBFDFD",
"f+	c #AAD78B",
"g+	c #7CC44D",
"h+	c #89C95E",
"i+	c #81C554",
"j+	c #83C757",
"k+	c #8DD46E",
"l+	c #F2FBED",
"m+	c #FCB0BD",
"n+	c #EF191E",
"o+	c #EA0F13",
"p+	c #FA1F1D",
"q+	c #FC2525",
"r+	c #FA2525",
"s+	c #E91515",
"t+	c #E51111",
"u+	c #F21E1E",
"v+	c #F72525",
"w+	c #F82525",
"x+	c #F82222",
"y+	c #F61D1D",
"z+	c #EF1817",
"A+	c #F5141A",
"B+	c #EF3E41",
"C+	c #F5CDD1",
"D+	c #FFF7FB",
"E+	c #A3D886",
"F+	c #7EC651",
"G+	c #82C655",
"H+	c #81CC5A",
"I+	c #CBF7C3",
"J+	c #F8DAD6",
"K+	c #FF737F",
"L+	c #EF7679",
"M+	c #8C0E0F",
"N+	c #8E1515",
"O+	c #8D1615",
"P+	c #E76F6F",
"Q+	c #FD8585",
"R+	c #C24B4B",
"S+	c #BF4747",
"T+	c #9E2626",
"U+	c #9C2626",
"V+	c #B03333",
"W+	c #F27D7D",
"X+	c #D34B50",
"Y+	c #FF889B",
"Z+	c #FFFDFF",
"`+	c #F9FFF8",
" @	c #B0DF98",
".@	c #7EC753",
"+@	c #87C75B",
"@@	c #7FC652",
"#@	c #80C64C",
"$@	c #82D15E",
"%@	c #BEFCB4",
"&@	c #D5DDE4",
"*@	c #000000",
"=@	c #D4D7D7",
"-@	c #8D9595",
";@	c #7F8585",
">@	c #2D3131",
",@	c #F6F6FD",
"'@	c #778A7C",
")@	c #C7FFBE",
"!@	c #9AD079",
"~@	c #82C752",
"{@	c #7AC24A",
"]@	c #84C859",
"^@	c #7DC34E",
"/@	c #91D36B",
"(@	c #7FC34A",
"_@	c #9ECB6E",
":@	c #CDC0C5",
"<@	c #4C4543",
"[@	c #6E696A",
"}@	c #F4F2F2",
"|@	c #979595",
"1@	c #878483",
"2@	c #A19E9D",
"3@	c #0D050B",
"4@	c #F5F2F2",
"5@	c #A299A3",
"6@	c #455137",
"7@	c #98D959",
"8@	c #6BB03B",
"9@	c #8ED361",
"0@	c #85C85A",
"a@	c #7FC551",
"b@	c #82C553",
"c@	c #79C74F",
"d@	c #A3E189",
"e@	c #FAF7FD",
"f@	c #CCD6D4",
"g@	c #D2DBE1",
"h@	c #F7FCFD",
"i@	c #FFFEFE",
"j@	c #F9FDFD",
"k@	c #252E2F",
"l@	c #6D7778",
"m@	c #C2CACF",
"n@	c #849190",
"o@	c #697B63",
"p@	c #99E977",
"q@	c #7FC156",
"r@	c #8CD35D",
"s@	c #7FC451",
"t@	c #7AC24B",
"u@	c #99D074",
"v@	c #FFFEFF",
"w@	c #FEFDFF",
"x@	c #E3E5E4",
"y@	c #070907",
"z@	c #221C27",
"A@	c #C6D9BB",
"B@	c #81CC50",
"C@	c #87CB5B",
"D@	c #86CC58",
"E@	c #7DC44F",
"F@	c #9FD57C",
"G@	c #F4E9F3",
"H@	c #DECBD9",
"I@	c #EDE1E9",
"J@	c #F9F7F8",
"K@	c #FCF9FB",
"L@	c #EDE8EB",
"M@	c #E5DFE7",
"N@	c #D1D2D0",
"O@	c #DCEFD0",
"P@	c #7CC34D",
"Q@	c #8ACA60",
"R@	c #7FC651",
"S@	c #A9DE85",
"T@	c #FBFAFE",
"U@	c #70626E",
"V@	c #E6D1DF",
"W@	c #D4C1CE",
"X@	c #F1DCEA",
"Y@	c #BAA9B4",
"Z@	c #CFC4CF",
"`@	c #E3F7D5",
" #	c #80C752",
".#	c #F4E9F1",
"+#	c #C6B0C1",
"@#	c #AD9EA9",
"##	c #E0CDDA",
"$#	c #D5C4CF",
"%#	c #DECCD8",
"&#	c #C2B3BD",
"*#	c #464144",
"=#	c #BBA7B8",
"-#	c #FDFBFB",
";#	c #DFF3D1",
">#	c #7CC54D",
",#	c #89C95F",
"'#	c #80C553",
")#	c #98CF74",
"!#	c #F3EEF2",
"~#	c #E8D0E3",
"{#	c #F4DEEE",
"]#	c #DDC8D6",
"^#	c #E5D0DE",
"/#	c #DFCAD8",
"(#	c #E9D4E2",
"_#	c #FFEFFF",
":#	c #FCE9FA",
"<#	c #FDFEFC",
"[#	c #D7EDC9",
"}#	c #7BC34B",
"|#	c #7FC450",
"1#	c #9ED67A",
"2#	c #D7CBD5",
"3#	c #B6A4B1",
"4#	c #D2C1CC",
"5#	c #C5B3BF",
"6#	c #C9B8C3",
"7#	c #C6B6C1",
"8#	c #9F909A",
"9#	c #EEE8F0",
"0#	c #DCF2CE",
"a#	c #9BD377",
"b#	c #F9F5FA",
"c#	c #C6B5C1",
"d#	c #B2A2AD",
"e#	c #AF9FAA",
"f#	c #BBABB5",
"g#	c #CBB8C5",
"h#	c #F1E6ED",
"i#	c #FDFEFD",
"j#	c #D7EDC8",
"k#	c #98D073",
"l#	c #FFFBFF",
"m#	c #F1E3EC",
"n#	c #ECDCE7",
"o#	c #EDDCE7",
"p#	c #F8F0F5",
"q#	c #FDFFFD",
"r#	c #D6ECC7",
"s#	c #FDFEFF",
"t#	c #FEFFFF",
"u#	c #FBFCFB",
"v#	c #FDFDFD",
"w#	c #DFF1D4",
"            . . . . . . + @ # $ % & * + . . . . .               ",
"          . . . . . . . = @ # $ % & @ + . . . . . .             ",
"          . . . . . . . = @ # $ % & @ + . . . . . . .           ",
"        . . . . . . . . = @ # $ % & @ + . . . . . . . .         ",
"      & # # # # # # # # - = ; > , ' = - # # # # # # # #         ",
"    ) . . . . . . . . . ! * ~ $ % # { ! . . . . . . . . .       ",
"  ] ^ ^ ^ ^ ^ ^ ^ ^ ^ ^ ' & / ( _ : # ' ^ ^ ^ ^ ^ ^ ^ ^ ^ ^     ",
"  < % % % % < % < [ } < | 1 2 3 4 5 6 7 8 % % % % % % % % % 9   ",
"  0 0 a b b b b c d e f g h i j k l m n o p q c b b b b c 0 c   ",
"  r s t t t t u v w t x y z A B C D E F v D G H u t I t t u r   ",
"  J 0 0 0 0 K L M N O P Q R S T U V W X Y Z `  ...J +.0 0 0 @.  ",
"  t t t t J #.$.%.&.*.=.-.;.>.,.'.).!.~.{.].^./.(._.:.t <.t t   ",
"  t t t t c [.}.|.1.2.3.4.5.6.7.8.9.0.a.b.c.d.e.f.g.h.J i.t t   ",
"  t t s t t j.k.l.m.n.o.p.q.r.s.t.u.v.w.x.y.z.A.B.C.0 t t t t   ",
"  t D.E.r E.F.G.H.I.J.K.L.M.N.O.P.Q.R.S.T.U.V.W.X.Y.Z.@.u D.t   ",
"  t `.r  +.+++@+++#+$+%+&+*+=+-+;+>+,+'+)+!+~+{+]+++^+t @./+c   ",
"  t (+_+:+<+++[+}+|+1+2+3+4+5+6+5+7+8+9+0+a+b+c+d+e+++f+g+h+i+  ",
"  t E.Z.j+k+l+++m+n+o+p+q+r+s+t+u+v+w+x+y+z+A+B+C+D+++E+F+i.G+  ",
"  t s c c H+E.I+J+K+L+M+N+O+P+Q+R+S+T+U+V+W+X+Y+Z+`+ @.@D./+t   ",
"  t t i.<.+@@@#@$@%@&@*@*@*@=@++-@;@*@*@>@,@'@)@!@~@{@i.J i.t   ",
"  t s D.i.]@^@/@(@_@:@<@*@[@}@++|@1@2@3@4@5@6@7@8@9@<.0@i.<.t   ",
"  t t t t v a@b@c@d@e@f@g@h@++i@j@k@l@m@n@*@o@p@q@r@s@<.t t t   ",
"  t t t t t i+s t@u@v@++++w@++++++x@y@*@*@z@A@B@C@D@D.t t t t   ",
"  t t t t t G+t E@F@++++G@H@I@J@K@L@++M@N@Z+O@P@Q@`.D.t t t t   ",
"  t t t t t G+t R@S@T@++U@*@V@W@X@Y@*@Z@++++`@ +h+`.D.t t t t   ",
"  t t t t t G+t  #H.++.#+#@###$#%#&#*#=#-#++;#>#,#'#<.t t t t   ",
"  t t t t t G+t  #)#++!#~#{#]#^#/#(#_#:#<#++[#}#,#'#<.t t t t   ",
"  t t t t t G+t |#1#v@++2#3#4#5#6#7#8#9#++++0#t@,#'#<.t t t t   ",
"  t t t t t G+t |#a#++++b#c#d#e#f#g#h#++i#++j#t@,#'#<.t t t t   ",
"  t t t t t G+<.s@k#++++++l#m#n#o#p#++++q#++r#t@,#'#<.t t t t   ",
"  t t t t t G+<.s@k#++++++s#t#u#i#++v#++<#++r#t@,#'#<.t t t t   ",
"                    ++++++++++++++++++++i#++w#                  "};
